PathFileType	4	(X/Y/Z)	/Users/itak/Documents/Research/Walk-IL/dataset/trc/00575_00009.trc
DataRate	CameraRate	NumFrames	NumMarkers	Units	OrigDataRate	OrigDataStartFrame	OrigNumFrames
100.000000	100.000000	4	53	mm	100.000000	195	521
Frame#	Time	RPSI			LPSI			L3			STRN			T10			C7			CLAV			RBAK			LBAK			LSHO			LUPA			LAEL			LAOL			LWTS			LWPS			LFRA			LIFD			LHPS			LHTS			RSHO			RUPA			RAEL			RAOL			RWTS			RWPS			RFRA			RIFD			RHTS			RHPS			RBHD			RFHD			LBHD			LHIP			RHIP			RASI			LASI			LKNE			LTHI			LANK			LTIP			LTOE			LMT1			LMT5			LHEE			RKNE			RTHI			RANK			RTIP			RTOE			RMT1			RMT5			RHEE			LFHD			
		X1	Y1	Z1	X2	Y2	Z2	X3	Y3	Z3	X4	Y4	Z4	X5	Y5	Z5	X6	Y6	Z6	X7	Y7	Z7	X8	Y8	Z8	X9	Y9	Z9	X10	Y10	Z10	X11	Y11	Z11	X12	Y12	Z12	X13	Y13	Z13	X14	Y14	Z14	X15	Y15	Z15	X16	Y16	Z16	X17	Y17	Z17	X18	Y18	Z18	X19	Y19	Z19	X20	Y20	Z20	X21	Y21	Z21	X22	Y22	Z22	X23	Y23	Z23	X24	Y24	Z24	X25	Y25	Z25	X26	Y26	Z26	X27	Y27	Z27	X28	Y28	Z28	X29	Y29	Z29	X30	Y30	Z30	X31	Y31	Z31	X32	Y32	Z32	X33	Y33	Z33	X34	Y34	Z34	X35	Y35	Z35	X36	Y36	Z36	X37	Y37	Z37	X38	Y38	Z38	X39	Y39	Z39	X40	Y40	Z40	X41	Y41	Z41	X42	Y42	Z42	X43	Y43	Z43	X44	Y44	Z44	X45	Y45	Z45	X46	Y46	Z46	X47	Y47	Z47	X48	Y48	Z48	X49	Y49	Z49	X50	Y50	Z50	X51	Y51	Z51	X52	Y52	Z52	X53	Y53	Z53	

196	1.95	-701.5372314453125	987.1932373046875	81.58686828613281	-616.6346435546875	1000.079467773438	-20.78155136108398	-655.8577880859375	1096.985107421875	28.83138275146484	-454.4461975097656	1278.393920898438	179.1707916259766	-650.9811401367188	1222.174438476562	29.92665672302246	-613.1239013671875	1494.360229492188	77.02645874023438	-468.4367065429688	1390.495361328125	173.0512084960938	-720.5362548828125	1369.177612304688	97.77616882324219	-584.3901977539062	1445.508911132812	-19.63770484924316	-456.4754333496094	1469.0234375	-23.1233959197998	-404.3954772949219	1346.353637695312	-87.95138549804688	-332.4107666015625	1137.086791992188	-79.11327362060547	-427.7448425292969	1103.415283203125	-91.44960784912109	-224.9150695800781	940.9631958007812	54.93779373168945	-209.4061431884766	904.6242065429688	-23.0358715057373	-288.850830078125	1063.131103515625	-57.80097198486328	-179.4638824462891	781.2416381835938	86.05392456054688	-189.08154296875	851.980224609375	0.2234186083078384	-176.9333953857422	875.6322021484375	63.18509674072266	-661.8142700195312	1452.356323242188	234.9206848144531	-718.029296875	1386.548706054688	275.0507507324219	-749.2730102539062	1096.69580078125	297.3575744628906	-774.0133056640625	1078.610473632812	241.5476379394531	-603.1610107421875	894.2233276367188	361.186279296875	-677.5475463867188	864.06591796875	379.9447937011719	-743.67431640625	1041.832763671875	310.1369018554688	-572.7614135742188	726.4200439453125	376.3295593261719	-580.0289916992188	808.4451904296875	397.7103271484375	-652.8048095703125	793.5593872070312	394.8700256347656	-587.1821899414062	1669.736328125	190.7207336425781	-474.0271911621094	1686.820190429688	272.4809265136719	-477.2363586425781	1671.857788085938	66.53414154052734	-433.8063049316406	928.0302124023438	-45.98728561401367	-673.7039184570312	923.7008666992188	256.7369384765625	-571.2047119140625	959.3425903320312	259.5630187988281	-400.6504211425781	954.368408203125	44.01229095458984	-471.7004089355469	484.2684936523438	40.2725944519043	-441.2270812988281	648.9019775390625	6.718483448028564	-619.614990234375	31.31199836730957	-18.51276969909668	-561.0865478515625	244.8978729248047	-8.75628662109375	-497.2040100097656	39.32717895507812	163.1556243896484	-574.7578735351562	44.44173431396484	141.5520629882812	-515.4029541015625	33.98440170288086	48.2596435546875	-706.9879150390625	36.73730087280273	-20.83170127868652	-506.4010925292969	527.79638671875	370.20166015625	-613.701904296875	794.2595825195312	314.2833557128906	-586.9990234375	60.75733184814453	278.5899353027344	-501.9188232421875	380.1264953613281	363.24169921875	-410.0213012695312	67.24029541015625	403.1227722167969	-421.9190673828125	61.34939956665039	328.7440490722656	-511.921630859375	57.34082412719727	383.7315979003906	-586.7621459960938	54.60633087158203	201.3085784912109	-382.6488952636719	1690.022827148438	159.4928436279297	
197	1.96	-695.4622802734375	986.749755859375	86.05863189697266	-610.6304931640625	999.658447265625	-16.48902130126953	-649.518798828125	1096.268798828125	33.33615493774414	-448.1897277832031	1277.562377929688	183.6348724365234	-644.653076171875	1221.418212890625	34.50839614868164	-606.8400268554688	1493.596557617188	81.53422546386719	-462.1664123535156	1389.679809570312	177.5287475585938	-714.2008056640625	1368.436767578125	102.2984390258789	-578.1640014648438	1444.77490234375	-15.14566135406494	-450.2104187011719	1468.242797851562	-18.68171119689941	-398.2134399414062	1345.52197265625	-83.42293548583984	-325.8425598144531	1136.506958007812	-74.27595520019531	-421.1799926757812	1102.466796875	-86.58472442626953	-217.4777374267578	942.0773315429688	61.24580764770508	-201.6220397949219	905.1690673828125	-16.43538475036621	-281.9583435058594	1062.947631835938	-52.44704818725586	-170.9980316162109	782.7883911132812	93.77400970458984	-181.0114135742188	852.8460693359375	7.307010173797607	-169.0554962158203	877.1431884765625	70.048095703125	-655.5072021484375	1451.648681640625	239.3711547851562	-711.7691650390625	1385.885131835938	279.5157165527344	-743.0518188476562	1095.997436523438	301.6597290039062	-767.8663330078125	1078.11767578125	245.793701171875	-598.0322265625	892.7583618164062	364.9023132324219	-672.5045776367188	862.9262084960938	383.7299194335938	-737.733642578125	1041.135620117188	314.3044128417969	-568.03369140625	725.3081665039062	380.3482360839844	-575.2227783203125	807.279052734375	401.9426879882812	-647.9175415039062	792.42822265625	398.9972839355469	-580.7094116210938	1669.085205078125	195.1925811767578	-467.545654296875	1686.052124023438	276.9834289550781	-470.7157897949219	1671.097290039062	71.01792144775391	-428.0668640136719	927.0928955078125	-41.72014236450195	-667.7272338867188	923.05126953125	261.01318359375	-565.1822509765625	958.4813232421875	263.9314575195312	-395.7437744140625	952.4737548828125	47.23881149291992	-469.4518127441406	483.3285522460938	42.27431488037109	-437.6937561035156	647.8657836914062	9.831396102905273	-619.5787353515625	31.60252380371094	-18.24288749694824	-559.9799194335938	244.5691375732422	-7.720053672790527	-497.2825622558594	39.13736343383789	163.5178985595703	-574.830078125	44.13793563842773	141.7580871582031	-515.4026489257812	34.07558441162109	48.37214279174805	-707.05126953125	37.14330673217773	-20.62856101989746	-498.1346435546875	528.2371826171875	374.5582885742188	-607.2606811523438	793.4327392578125	318.9482116699219	-561.3173217773438	56.04262161254883	296.7635192871094	-488.8444519042969	380.7993469238281	371.5928039550781	-384.3433532714844	71.31105804443359	420.7918701171875	-396.2197875976562	63.43235015869141	346.5750122070312	-485.9282836914062	57.68704986572266	401.8273010253906	-560.96875	48.13612365722656	219.5840148925781	-376.1968688964844	1689.170288085938	164.0032348632812	
198	1.97	-689.3003540039062	986.2182006835938	90.63582611083984	-604.5521240234375	999.1439208984375	-12.09007263183594	-643.0811767578125	1095.449951171875	37.91961288452148	-441.8972778320312	1276.63037109375	188.1866607666016	-638.29638671875	1220.572143554688	39.15021133422852	-600.5084228515625	1492.741455078125	86.13905334472656	-455.8440551757812	1388.765258789062	182.0800323486328	-707.8253173828125	1367.61279296875	106.9115295410156	-571.89306640625	1443.950927734375	-10.55434322357178	-443.9006958007812	1467.368530273438	-14.15473461151123	-392.0465698242188	1344.594970703125	-78.84015655517578	-319.4440307617188	1135.766723632812	-69.48240661621094	-414.8021240234375	1101.416137695312	-81.64811706542969	-210.2189025878906	942.9306030273438	67.35184478759766	-194.1410369873047	905.4666748046875	-10.04265785217285	-275.2646789550781	1062.581665039062	-47.18943405151367	-162.9104919433594	784.0704956054688	101.148796081543	-173.2710571289062	853.4293823242188	14.1399564743042	-161.4215545654297	878.3407592773438	76.64107513427734	-649.15576171875	1450.843994140625	243.9198150634766	-705.4761352539062	1385.132446289062	284.0591430664062	-736.9139404296875	1095.223510742188	305.9828491210938	-761.7904052734375	1077.557495117188	250.0568389892578	-593.0476684570312	891.1878662109375	368.6723022460938	-667.6325073242188	861.6890258789062	387.5285339355469	-731.885498046875	1040.355224609375	318.4827270507812	-563.4940185546875	724.1115112304688	384.4547119140625	-570.613037109375	806.0214233398438	406.2843322753906	-643.2225341796875	791.2050170898438	403.1668090820312	-574.1840209960938	1668.338745117188	199.7540893554688	-460.9956359863281	1685.198486328125	281.5501403808594	-464.1759948730469	1670.2392578125	75.56316375732422	-422.2750244140625	926.0496215820312	-37.38592147827148	-661.7247924804688	922.2660522460938	265.3516845703125	-559.1065063476562	957.5027465820312	268.397705078125	-390.7372131347656	950.501953125	50.6235466003418	-467.178466796875	482.3406372070312	44.36533737182617	-434.1026611328125	646.7649536132812	12.99367904663086	-619.5620727539062	31.94692039489746	-17.93416404724121	-558.8460693359375	244.2059631347656	-6.636825561523438	-497.3367614746094	38.9646110534668	163.8667602539062	-574.9320068359375	43.84519958496094	141.9803009033203	-515.444580078125	34.15015029907227	48.49784469604492	-707.1314086914062	37.56187438964844	-20.4154167175293	-490.0039978027344	528.3543090820312	378.7206420898438	-600.8579711914062	792.3346557617188	323.6094665527344	-535.7698364257812	52.11727523803711	314.7856750488281	-475.96044921875	381.4752807617188	379.6672668457031	-358.8672180175781	75.72953033447266	437.8533935546875	-370.7981872558594	66.06311798095703	363.8494262695312	-460.0296020507812	58.4978141784668	419.5268859863281	-535.3665161132812	42.61986923217773	237.7568511962891	-369.7033996582031	1688.217163085938	168.5523376464844	
199	1.98	-683.0504760742188	985.5635375976562	95.32721710205078	-598.3958129882812	998.5077514648438	-7.572656154632568	-636.5609741210938	1094.51953125	42.5885124206543	-435.5673217773438	1275.592407226562	192.8257446289062	-631.9154663085938	1219.631958007812	43.8542594909668	-594.1200561523438	1491.792724609375	90.84184265136719	-449.4647521972656	1387.74462890625	186.7070922851562	-701.4033203125	1366.699584960938	111.6100921630859	-565.566650390625	1443.035034179688	-5.868599891662598	-437.5369567871094	1466.394287109375	-9.538572311401367	-385.8733520507812	1343.566162109375	-74.20303344726562	-313.2044372558594	1134.855834960938	-64.72657775878906	-408.5787048339844	1100.264404296875	-76.65464782714844	-203.1318817138672	943.4989013671875	73.25833892822266	-186.9584045410156	905.4999389648438	-3.854413270950317	-268.7609252929688	1062.021240234375	-42.02478408813477	-155.1734313964844	785.0880126953125	108.1832046508789	-165.8439178466797	853.7157592773438	20.71876335144043	-154.0254211425781	879.2011108398438	82.97293853759766	-642.7568359375	1449.931396484375	248.5698547363281	-699.1478881835938	1384.277954101562	288.6843566894531	-730.868408203125	1094.365478515625	310.3208618164062	-755.7891235351562	1076.917114257812	254.3297424316406	-588.1956787109375	889.5244750976562	372.5199890136719	-662.922119140625	860.3560791015625	391.3514709472656	-726.1333618164062	1039.484130859375	322.6706848144531	-559.1474609375	722.8182983398438	388.6478881835938	-566.1861572265625	804.6672973632812	410.7291259765625	-638.7130737304688	789.8916015625	407.3774719238281	-567.6055297851562	1667.484130859375	204.4097290039062	-454.3775634765625	1684.258666992188	286.1803894042969	-457.6250915527344	1669.271850585938	80.17282104492188	-416.4182434082031	924.9085693359375	-32.99145126342773	-655.6749267578125	921.3348999023438	269.7664489746094	-552.95361328125	956.4082641601562	272.9771728515625	-385.495849609375	948.541015625	54.27204895019531	-464.8775024414062	481.314697265625	46.51337051391602	-430.4441528320312	645.6129150390625	16.17610549926758	-619.5889892578125	32.34077835083008	-17.60329246520996	-557.6961059570312	243.8335571289062	-5.534346103668213	-497.3699035644531	38.81250381469727	164.1838989257812	-575.060791015625	43.57313537597656	142.2157897949219	-515.5206909179688	34.20981979370117	48.63219833374023	-707.2271728515625	37.99717330932617	-20.19731140136719	-481.9620056152344	528.164306640625	382.7474670410156	-594.5463256835938	791.0625610351562	328.2369689941406	-510.4840698242188	48.97719955444336	332.5992431640625	-463.250732421875	382.1335754394531	387.4708557128906	-333.6846618652344	80.49449920654297	454.2508239746094	-345.7672119140625	69.21813201904297	380.4984741210938	-434.318359375	59.75952911376953	436.7835388183594	-510.1016235351562	38.02998352050781	255.7433776855469	-363.1651000976562	1687.1630859375	173.1402130126953	
